<svg width="285" height="284" viewBox="0 0 285 284" fill="none" xmlns="http://www.w3.org/2000/svg">
<path d="M61.7324 129.637C72.1155 110.419 88.9841 96.6041 108.438 89.8402C111.756 87.8757 115.657 86.2268 118.975 84.2622C133.413 77.0354 144.273 65.9847 152.988 52.6398C158.29 44.2202 165.155 37.7793 173.452 32.8678C182.825 26.6584 194.297 24.2236 205.179 26.3634C202.451 23.7534 199.275 21.2767 195.785 19.3824C181.822 11.8051 165.648 13.1945 153.538 21.6842C145.242 26.5957 138.376 33.0367 133.075 41.4562C124.36 54.8011 113.051 65.9851 99.0616 73.0786C95.2949 75.1765 91.9764 77.1411 88.5243 78.6566C69.0706 85.4205 52.202 99.2356 41.8189 118.453C19.4794 159.8 34.9726 211.888 76.2778 234.304C79.7683 236.199 83.1253 237.644 86.9306 238.956C52.7966 214.407 41.4143 167.938 61.7324 129.637Z" fill="#245733"/>
<path d="M226.233 172.596C225.984 161.917 225.286 151.372 224.141 140.96C222.289 124.892 225.587 109.737 231.975 95.1296C236.112 86.0786 237.609 76.3471 237.178 66.6998C237.205 52.0289 229.66 38.144 216.146 30.4333C212.656 28.539 208.851 27.227 205.179 26.3641C194.297 24.2242 183.273 26.5257 173.9 32.7352C165.604 37.6466 158.738 44.0876 153.437 52.5071C144.722 65.852 133.413 77.036 119.423 84.1295C116.105 86.0941 112.205 87.743 108.886 89.7076C89.4324 96.4714 72.5638 110.287 62.1807 129.504C41.7291 167.357 52.7967 214.407 86.9307 238.957C90.1066 241.433 93.149 243.461 96.6396 245.355C108.275 251.67 121.035 255.206 133.309 255.465C136.265 255.563 138.907 256.244 141.863 256.342C168.022 257.359 189.945 247.417 207.004 227.68C220.382 211.971 226.597 193.504 226.233 172.596Z" fill="#139592"/>
<path d="M174.004 195.462C162.992 215.844 137.892 223.31 117.531 212.26C97.1689 201.209 89.6895 176.063 100.702 155.681C111.714 135.299 136.814 127.833 157.175 138.884C177.403 149.485 185.016 175.08 174.004 195.462Z" fill="#0071AE"/>
</svg>
