<svg width="237" height="237" viewBox="0 0 237 237" fill="none" xmlns="http://www.w3.org/2000/svg">
<path d="M141.42 32.0022L130.206 66.4757L141.811 70.2506L153.025 35.7771L141.42 32.0022Z" fill="#A5276E"/>
<path d="M137.571 124.381C127.365 155.757 93.4598 173.019 62.0838 162.812C30.7079 152.606 13.4463 118.701 23.6523 87.3251C33.8584 55.9491 67.7638 38.6875 99.1397 48.8936C130.516 59.0997 147.777 93.005 137.571 124.381Z" fill="#EB3740"/>
<path d="M212.874 148.876C202.668 180.252 168.763 197.513 137.387 187.307C105.848 176.781 88.749 143.196 98.9551 111.82C109.161 80.4438 143.066 63.1821 174.442 73.3882C205.818 83.5943 222.917 117.18 212.874 148.876Z" fill="#EB3740"/>
<path d="M62.7523 100.044C70.4461 76.3909 91.2021 60.9905 114.302 58.8965C113.494 58.0998 112.365 57.4659 111.557 56.6691C87.0031 57.4896 64.4849 73.3843 56.4771 98.0023C48.4692 122.62 57.327 148.721 76.6994 163.83C77.9847 163.981 79.1071 163.813 80.2295 163.644C62.7821 148.361 55.0584 123.696 62.7523 100.044Z" fill="#A5276E"/>
<path d="M175.223 136.628C167.529 160.281 146.773 175.681 123.673 177.776C124.481 178.572 125.61 179.206 126.418 180.003C150.972 179.182 173.49 163.288 181.498 138.67C189.506 114.052 180.648 87.9508 161.276 72.8419C160.153 73.0106 158.868 72.8594 157.745 73.028C175.193 88.3115 182.917 112.976 175.223 136.628Z" fill="#A5276E"/>
<path d="M175.706 136.785C165.499 168.161 131.594 185.423 100.218 175.217C68.8421 165.011 51.5805 131.105 61.7866 99.7295C71.9927 68.3535 105.898 51.0919 137.274 61.298C168.65 71.5041 185.912 105.409 175.706 136.785Z" fill="#EB3740"/>
</svg>
