<svg width="272" height="291" viewBox="0 0 272 291" fill="none" xmlns="http://www.w3.org/2000/svg">
<path d="M139.878 169.388C177.441 164.84 207.461 142.289 223.111 111.282C224.741 107.988 228.019 105.78 231.702 105.334C238.791 104.476 245.362 110.017 245.781 117.209C249.369 175.236 209.185 225.509 150.999 232.555C92.8138 239.6 36.9738 200.955 20.3668 144.551C18.2897 137.56 22.713 130.64 29.7643 129.834C33.4469 129.388 37.3496 130.726 40.047 133.496C65.7723 159.446 102.315 173.937 139.878 169.388Z" fill="#E6DF35"/>
<path d="M68.9608 183.235C108.725 213.394 165.098 214.849 201.299 184.55L199.236 182.098C160.221 214.699 97.2048 209.415 58.7685 170.342L56.6676 172.459C60.5763 176.391 64.7099 180.01 68.9608 183.235Z" fill="#37594F"/>
<path d="M229.989 122.953C226.661 120.427 225.883 115.76 228.252 112.53C230.62 109.3 235.238 108.73 238.566 111.256C241.895 113.783 242.673 118.449 240.304 121.679C237.936 124.909 233.317 125.48 229.989 122.953Z" fill="#37594F"/>
<path d="M27.926 150.115C24.5977 147.588 23.8198 142.922 26.1883 139.692C28.5569 136.462 33.175 135.892 36.5033 138.418C39.8315 140.945 40.6094 145.611 38.2409 148.841C35.8723 152.071 31.2542 152.641 27.926 150.115Z" fill="#37594F"/>
</svg>
